HIERARCHY
ROOT hip
{
  OFFSET 40.0446 45.7744 93.4008
  CHANNELS 6 Xposition Yposition Zposition Zrotation Xrotation Yrotation
  JOINT abdomen
  {
    OFFSET 0 6.09653 0.699602
    CHANNELS 3 Zrotation Xrotation Yrotation
    JOINT chest
    {
      OFFSET 0 2.49857 -0.699602
      CHANNELS 3 Zrotation Xrotation Yrotation
      JOINT rCollar
      {
        OFFSET -1.49915 11.2936 -1.69903
        CHANNELS 3 Zrotation Xrotation Yrotation
        JOINT rShldr
        {
          OFFSET -4.89721 -0.299829 0.799545
          CHANNELS 3 Zrotation Xrotation Yrotation
          JOINT rForeArm
          {
            OFFSET -12.4216 -1.19922 0.931564
            CHANNELS 3 Zrotation Xrotation Yrotation
            JOINT rHand
            {
              OFFSET -9.86568 0.0998477 3.66582
              CHANNELS 3 Zrotation Xrotation Yrotation
              JOINT rThumb1
              {
                OFFSET -0.399773 -0.39977 1.19932
                CHANNELS 3 Zrotation Xrotation Yrotation
                JOINT rThumb2
                {
                  OFFSET -0.998132 0 1.47145
                  CHANNELS 3 Zrotation Xrotation Yrotation
                  End Site
                  {
                    OFFSET -0.977841 -0.278837 0.829828
                  }
                }
              }
              JOINT rRing1
              {
                OFFSET -3.39807 0.399775 0.299829
                CHANNELS 3 Zrotation Xrotation Yrotation
                JOINT rRing2
                {
                  OFFSET -1.29926 -0.199888 0.399772
                  CHANNELS 3 Zrotation Xrotation Yrotation
                  End Site
                  {
                    OFFSET -0.899487 -0.0999402 0.199886
                  }
                }
              }
              JOINT rIndex1
              {
                OFFSET -2.69847 0.399775 2.09881
                CHANNELS 3 Zrotation Xrotation Yrotation
                JOINT rIndex2
                {
                  OFFSET -1.33823 -0.200883 0.6843
                  CHANNELS 3 Zrotation Xrotation Yrotation
                  End Site
                  {
                    OFFSET -0.760569 0.00099747 0.415074
                  }
                }
              }
              JOINT rMid1
              {
                OFFSET -2.99829 0.499717 1.09937
                CHANNELS 3 Zrotation Xrotation Yrotation
                JOINT rMid2
                {
                  OFFSET -1.45827 -0.0999391 0.600149
                  CHANNELS 3 Zrotation Xrotation Yrotation
                  End Site
                  {
                    OFFSET -1.0403 -0.0999474 0.399282
                  }
                }
              }
              JOINT rPinky1
              {
                OFFSET -3.29812 0.0999423 -0.399772
                CHANNELS 3 Zrotation Xrotation Yrotation
                JOINT rPinky2
                {
                  OFFSET -0.899492 -0.0999405 0
                  CHANNELS 3 Zrotation Xrotation Yrotation
                  End Site
                  {
                    OFFSET -0.999429 -0.0999421 0
                  }
                }
              }
            }
          }
        }
      }
      JOINT lCollar
      {
        OFFSET 1.49915 11.2936 -1.69903
        CHANNELS 3 Zrotation Xrotation Yrotation
        JOINT lShldr
        {
          OFFSET 4.89721 -0.299833 0.799545
          CHANNELS 3 Zrotation Xrotation Yrotation
          JOINT lForeArm
          {
            OFFSET 12.4216 -1.19922 0.931564
            CHANNELS 3 Zrotation Xrotation Yrotation
            JOINT lHand
            {
              OFFSET 9.86568 0.0998482 3.66582
              CHANNELS 3 Zrotation Xrotation Yrotation
              JOINT lMid1
              {
                OFFSET 2.99829 0.499714 1.09937
                CHANNELS 3 Zrotation Xrotation Yrotation
                JOINT lMid2
                {
                  OFFSET 1.45827 -0.0999388 0.600149
                  CHANNELS 3 Zrotation Xrotation Yrotation
                  End Site
                  {
                    OFFSET 1.04031 -0.0999473 0.399282
                  }
                }
              }
              JOINT lThumb1
              {
                OFFSET 0.399772 -0.399773 1.19932
                CHANNELS 3 Zrotation Xrotation Yrotation
                JOINT lThumb2
                {
                  OFFSET 0.99813 0 1.47145
                  CHANNELS 3 Zrotation Xrotation Yrotation
                  End Site
                  {
                    OFFSET 0.97784 -0.27884 0.829828
                  }
                }
              }
              JOINT lIndex1
              {
                OFFSET 2.69846 0.399775 2.09881
                CHANNELS 3 Zrotation Xrotation Yrotation
                JOINT lIndex2
                {
                  OFFSET 1.33823 -0.200884 0.6843
                  CHANNELS 3 Zrotation Xrotation Yrotation
                  End Site
                  {
                    OFFSET 0.760567 0.00099574 0.415074
                  }
                }
              }
              JOINT lRing1
              {
                OFFSET 3.39806 0.399773 0.299829
                CHANNELS 3 Zrotation Xrotation Yrotation
                JOINT lRing2
                {
                  OFFSET 1.29926 -0.199886 0.399772
                  CHANNELS 3 Zrotation Xrotation Yrotation
                  End Site
                  {
                    OFFSET 0.899489 -0.0999425 0.199886
                  }
                }
              }
              JOINT lPinky1
              {
                OFFSET 3.29812 0.0999421 -0.399772
                CHANNELS 3 Zrotation Xrotation Yrotation
                JOINT lPinky2
                {
                  OFFSET 0.899488 -0.0999427 0
                  CHANNELS 3 Zrotation Xrotation Yrotation
                  End Site
                  {
                    OFFSET 0.999427 -0.0999418 0
                  }
                }
              }
            }
          }
        }
      }
      JOINT neck
      {
        OFFSET 0 12.4929 -0.499715
        CHANNELS 3 Zrotation Xrotation Yrotation
        JOINT head
        {
          OFFSET 0 3.59795 0.299829
          CHANNELS 3 Zrotation Xrotation Yrotation
          JOINT rightEye
          {
            OFFSET -1.19932 3.69789 3.19818
            CHANNELS 3 Zrotation Xrotation Yrotation
            End Site
            {
              OFFSET 0 0 0
            }
          }
          JOINT leftEye
          {
            OFFSET 1.19932 3.69789 3.19818
            CHANNELS 3 Zrotation Xrotation Yrotation
            End Site
            {
              OFFSET 0 0 0
            }
          }
        }
      }
    }
  }
  JOINT rButtock
  {
    OFFSET -4.19761 -0.599656 -0.299829
    CHANNELS 3 Zrotation Xrotation Yrotation
    JOINT rThigh
    {
      OFFSET 0 -1.49915 0
      CHANNELS 3 Zrotation Xrotation Yrotation
      JOINT rShin
      {
        OFFSET 0.699602 -17.6899 -1.09938
        CHANNELS 3 Zrotation Xrotation Yrotation
        JOINT rFoot
        {
          OFFSET -0.699602 -18.0897 -0.699602
          CHANNELS 3 Zrotation Xrotation Yrotation
          End Site
          {
            OFFSET 0 -2.09881 5.59681
          }
        }
      }
    }
  }
  JOINT lButtock
  {
    OFFSET 4.19761 -0.599656 -0.299829
    CHANNELS 3 Zrotation Xrotation Yrotation
    JOINT lThigh
    {
      OFFSET 0 -1.49914 0
      CHANNELS 3 Zrotation Xrotation Yrotation
      JOINT lShin
      {
        OFFSET -0.699602 -17.6899 -1.09937
        CHANNELS 3 Zrotation Xrotation Yrotation
        JOINT lFoot
        {
          OFFSET 0.699602 -18.0897 -0.699602
          CHANNELS 3 Zrotation Xrotation Yrotation
          End Site
          {
            OFFSET 0 -2.0988 5.59681
          }
        }
      }
    }
  }
}
MOTION
Frames:	6
Frame Time:	0.0333333
40.0446 45.7744 93.4008 -0.00973194 0.133078 172.242 -0.00975517 -0.00975351 -0.00975351 -3.64697 0.445416 -1.35778 3.61331 0.0433759 2.17101 69.9821 -37.075 -16.737 21.7786 13.0383 105.214 18.559 5.20746 -9.17318 4.76384e-005 -0.0456258 -0.00979297 -9.39785 -7.91692 -0.663799 -0.00762998 -0.00786945 -0.0111468 2.42704 -0.497593 4.4329 -0.00535577 -0.00715519 -0.0109561 8.61171 -0.00190224 -1.79828 -0.00609508 -0.00836079 -0.0103549 -0.219776 0.404223 1.44943 -0.00959103 -0.0083055 -0.0110377 0.629423 -0.00953168 -0.000952461 -2.89252 1.17293 -20.5768 -73.0918 -3.05501 16.3377 17.4695 12.9101 -43.5556 -7.36909 2.23411 6.03128 -0.0134406 -0.00970039 -0.00912699 0.204766 0.414791 -1.45043 4.80747e-005 -0.0456259 -0.00980943 9.41156 -7.94154 0.625636 -0.0141078 -0.0100903 -0.0083563 -8.62297 -0.0232165 1.79819 -0.0118426 -0.0109771 -0.0081398 -2.42852 -0.50238 -4.43241 -0.00985913 -0.011016 -0.00833462 -0.629917 -0.0099583 0.00100884 3.60961 -0.337053 1.52074 -0.69252 -32.0627 -8.63354 0 0 0 0 0 0 -0.00975517 -0.00969887 -0.00983547 9.69535 -22.0884 12.9604 0.2051 1.6393 5.3507 -2.94661 34.6675 -0.34483 -0.00975517 -0.00983547 -0.00969887 -5.11836 5.68628 14.7285 -0.128788 5.88603 -2.50914 3.87554 15.1936 -0.0754706 
40.0191 45.5216 92.4629 0.0865922 0.277331 174.951 -0.00975517 -0.00975351 -0.00975351 -3.91875 0.410761 -2.12567 3.94291 -0.147471 -2.49338 69.422 -43.2214 -15.6509 27.6761 19.2459 107.145 17.8125 4.49411 -11.9691 4.76384e-005 -0.0456258 -0.00979297 -9.39785 -7.91692 -0.663799 -0.00762998 -0.00786945 -0.0111468 2.42704 -0.497593 4.4329 -0.00535577 -0.00715519 -0.0109561 8.61171 -0.00190225 -1.79828 -0.00609508 -0.00836079 -0.0103549 -0.219776 0.404223 1.44943 -0.00959103 -0.0083055 -0.0110377 0.629423 -0.00953168 -0.000952461 -2.97739 1.15828 -19.6965 -72.9341 0.639439 14.4865 18.3156 12.9814 -44.3284 -8.47314 2.49654 6.96353 -0.0134406 -0.00970039 -0.00912699 0.204766 0.414791 -1.45043 4.80747e-005 -0.0456259 -0.00980943 9.41156 -7.94154 0.625636 -0.0141078 -0.0100903 -0.0083563 -8.62297 -0.0232165 1.79819 -0.0118426 -0.0109771 -0.0081398 -2.42852 -0.50238 -4.43241 -0.00985913 -0.011016 -0.00833462 -0.629917 -0.0099583 0.00100884 3.97264 -0.241244 2.27162 -2.46049 -31.579 -11.7845 0 0 0 0 0 0 -0.00975517 -0.00969887 -0.00983547 9.14258 -23.201 15.2103 0.201755 1.64153 5.27756 -3.34796 32.0965 -0.179758 -0.00975517 -0.00983547 -0.00969887 -5.06545 7.27638 11.1473 -0.0882443 5.74965 -1.54424 4.0699 14.6275 -0.110546 
40.0189 45.2256 91.4716 -0.114334 0.182577 174.486 -0.00975517 -0.00975351 -0.00975351 -4.45399 0.109017 -1.47055 4.12614 -0.0453669 -0.654316 66.073 -46.942 -16.781 31.4209 24.4731 108.922 16.7215 3.7543 -14.7111 4.76384e-005 -0.0456258 -0.00979297 -9.39785 -7.91692 -0.663799 -0.00762998 -0.00786945 -0.0111468 2.42704 -0.497593 4.4329 -0.00535577 -0.00715519 -0.0109561 8.61171 -0.00190226 -1.79828 -0.00609508 -0.00836079 -0.0103549 -0.219776 0.404223 1.44943 -0.00959103 -0.0083055 -0.0110377 0.629423 -0.00953168 -0.000952461 -2.396 1.0305 -20.3067 -72.8407 1.26872 13.2839 18.1172 12.2216 -45.5113 -8.76778 2.64744 6.31454 -0.0134406 -0.00970039 -0.00912699 0.204766 0.414791 -1.45043 4.80747e-005 -0.0456259 -0.00980943 9.41156 -7.94154 0.625636 -0.0141078 -0.0100903 -0.0083563 -8.62297 -0.0232165 1.79819 -0.0118426 -0.0109771 -0.0081398 -2.42852 -0.50238 -4.43241 -0.00985913 -0.011016 -0.00833462 -0.629917 -0.0099583 0.00100884 4.30383 0.0227795 1.61492 -2.16277 -31.4744 -10.7941 0 0 0 0 0 0 -0.00975517 -0.00969887 -0.00983547 8.72827 -23.304 14.7404 0.275662 1.72443 7.24735 -2.9448 33.0517 -0.323041 -0.00975517 -0.00983547 -0.00969887 -5.57871 8.57317 10.8312 -0.0741154 6.06087 -1.16485 4.1155 13.1408 -0.122298 
40.0226 45.0153 90.2893 1.0029 0.553269 175.543 -0.00975517 -0.00975351 -0.00975351 -4.04577 -0.269639 -1.66063 5.07024 0.0346022 -0.512715 62.2284 -49.37 -18.4041 34.5407 29.392 110.148 15.6374 3.22124 -16.5132 4.76384e-005 -0.0456258 -0.00979297 -9.39785 -7.91692 -0.663799 -0.00762998 -0.00786945 -0.0111468 2.42704 -0.497593 4.4329 -0.00535577 -0.00715519 -0.0109561 8.61171 -0.00190227 -1.79828 -0.00609508 -0.00836079 -0.0103549 -0.219776 0.404223 1.44943 -0.00959103 -0.0083055 -0.0110377 0.629423 -0.00953168 -0.000952461 -1.81206 0.89282 -20.8314 -72.9649 1.30635 12.4714 18.1468 12.0969 -45.7725 -8.73671 2.69392 5.7149 -0.0134406 -0.00970039 -0.00912699 0.204766 0.414791 -1.45043 4.80747e-005 -0.0456259 -0.00980943 9.41156 -7.94154 0.625636 -0.0141078 -0.0100903 -0.0083563 -8.62297 -0.0232165 1.79819 -0.0118426 -0.0109771 -0.0081398 -2.42852 -0.50238 -4.43241 -0.00985913 -0.011016 -0.00833462 -0.629917 -0.0099583 0.00100884 4.97333 0.437601 1.78988 -2.51472 -31.0036 -10.7836 0 0 0 0 0 0 -0.00975517 -0.00969887 -0.00983547 8.96604 -22.2729 13.8077 0.225121 1.66038 5.89186 -2.48441 34.9565 -0.510306 -0.00975517 -0.00983547 -0.00969887 -4.38201 10.5722 10.1913 -0.10116 6.63398 -1.74805 4.32731 12.2761 -0.155553 
40.0425 44.8829 88.9816 2.8241 0.939695 176.685 -0.00975517 -0.00975351 -0.00975351 -3.26155 -0.66157 -2.11517 6.21638 0.153188 -0.0728391 59.0881 -52.1056 -20.0056 37.0807 34.2052 111.259 14.2945 2.7192 -17.9969 4.76384e-005 -0.0456258 -0.00979297 -9.39785 -7.91692 -0.663799 -0.00762998 -0.00786945 -0.0111468 2.42704 -0.497593 4.4329 -0.00535577 -0.00715519 -0.0109561 8.61171 -0.00190228 -1.79828 -0.00609508 -0.00836079 -0.0103549 -0.219776 0.404223 1.44943 -0.00959103 -0.0083055 -0.0110377 0.629423 -0.00953168 -0.000952461 -0.166526 0.441521 -20.2854 -73.8571 2.14242 10.852 17.3323 12.3618 -44.4311 -8.19477 2.60163 4.81557 -0.0134406 -0.00970039 -0.00912699 0.204766 0.414791 -1.45043 4.80747e-005 -0.0456259 -0.00980943 9.41156 -7.94154 0.625636 -0.0141078 -0.0100903 -0.0083563 -8.62297 -0.0232165 1.79819 -0.0118426 -0.0109771 -0.0081398 -2.42852 -0.50238 -4.43241 -0.00985913 -0.011016 -0.00833462 -0.629917 -0.0099583 0.00100884 5.97885 0.909768 2.20134 -2.9051 -30.6421 -11.0733 0 0 0 0 0 0 -0.00975517 -0.00969887 -0.00983547 10.0092 -20.8106 12.7525 0.207147 1.63531 5.41847 -1.70762 36.8161 -0.829358 -0.00975517 -0.00983547 -0.00969887 -2.35843 12.5529 9.35117 -0.116687 7.19518 -2.05076 4.70677 12.603 -0.211557 
40.085 44.7896 87.6148 4.63522 0.977031 177.061 -0.00975517 -0.00975351 -0.00975351 -2.51006 -1.22474 -2.33888 7.41262 0.199374 -0.723024 57.3711 -53.7672 -20.2349 39.8201 39.1746 111.717 13.1179 2.49149 -17.895 4.76384e-005 -0.0456258 -0.00979297 -9.39785 -7.91692 -0.663799 -0.00762998 -0.00786945 -0.0111468 2.42704 -0.497593 4.4329 -0.00535577 -0.00715519 -0.0109561 8.61171 -0.0019023 -1.79828 -0.00609508 -0.00836079 -0.0103549 -0.219776 0.404223 1.44943 -0.00959103 -0.0083055 -0.0110377 0.629423 -0.00953168 -0.000952461 1.61813 -0.0285667 -19.3322 -74.854 3.87291 9.88646 16.5844 12.2337 -43.8581 -7.30144 2.36975 4.07752 -0.0134406 -0.00970039 -0.00912699 0.204766 0.414791 -1.45043 4.80747e-005 -0.0456259 -0.00980943 9.41156 -7.94154 0.625636 -0.0141078 -0.0100903 -0.0083563 -8.62297 -0.0232165 1.79819 -0.0118426 -0.0109771 -0.0081398 -2.42852 -0.50238 -4.43241 -0.00985913 -0.011016 -0.00833462 -0.629917 -0.0099583 0.00100884 7.01374 1.53877 2.33109 -1.75558 -30.1969 -8.02077 0 0 0 0 0 0 -0.00975517 -0.00969887 -0.00983547 11.5105 -19.3485 11.8063 0.234123 1.66305 6.13031 -0.948521 38.0746 -1.14946 -0.00975517 -0.00983547 -0.00969887 -0.440731 14.0779 8.49551 -0.119007 7.47831 -2.06709 5.07831 14.6708 -0.278329 
